Coordinates
version=1
nRows=12
nColumns=42
inDegrees=yes

Units are S.I. units (second, meters, Newtons, ...)
If the header above contains a line with 'inDegrees', this indicates whether rotational values are in degrees (yes) or radians (no).

endheader
time	pelvis_tilt	pelvis_list	pelvis_rotation	pelvis_tx	pelvis_ty	pelvis_tz	hip_flexion_r	hip_adduction_r	hip_rotation_r	knee_angle_r	knee_adduction_r	knee_angle_r_beta	ankle_angle_r	subtalar_angle_r	mtp_angle_r	hip_flexion_l	hip_adduction_l	hip_rotation_l	knee_angle_l	knee_adduction_l	knee_angle_l_beta	ankle_angle_l	subtalar_angle_l	mtp_angle_l	lumbar_extension	lumbar_bending	lumbar_rotation	arm_flex_r	arm_add_r	arm_rot_r	elbow_flex_r	pro_sup_r	wrist_flex_r	wrist_dev_r	arm_flex_l	arm_add_l	arm_rot_l	elbow_flex_l	pro_sup_l	wrist_flex_l	wrist_dev_l
      1.07000000	      9.48677754	     -3.33008055	      3.37707760	     -1.01835346	      0.90407876	      0.20928890	      2.45289705	      3.52657147	    -14.54953317	     31.81535017	      6.16795240	      0.55528261	     23.15592716	     16.46405515	     -7.88162446	     16.77430698	     -4.47910965	     -7.52927236	     73.98731851	     -6.28729590	      1.29132231	      9.14856918	    -16.40898921	     -7.88162446	    -23.18142278	      7.06379609	     -1.22800818	      7.67428023	    -11.00098996	    -14.22002340	     35.30834880	     90.00000001	      0.00000000	      0.00000000	     -3.29407266	     -5.85138824	    -28.18966346	     32.17558211	     90.00000001	      0.00000000	      0.00000000
      1.08000000	      9.45617776	     -3.14817572	      3.23363327	     -1.01149937	      0.90439734	      0.20982385	      1.87084961	      3.55918953	    -14.24698771	     31.54578028	      5.97581843	      0.55057773	     23.32738948	     16.34518681	     -7.87481857	     18.10810629	     -3.96934293	     -7.43420413	     72.93343969	     -6.25817152	      1.27292866	      9.62377864	    -15.88450082	     -7.87481857	    -23.35597075	      6.80757270	     -1.00949495	      8.28380001	    -11.14977662	    -13.74640284	     35.58031648	     90.00000001	      0.00000000	      0.00000000	     -3.46666818	     -5.74858144	    -28.15385066	     32.56111799	     90.00000001	      0.00000000	      0.00000000
      1.09000000	      9.69650009	     -2.91553363	      3.02568749	     -1.00436549	      0.90525936	      0.21029370	      0.83318650	      3.43295971	    -13.76064636	     31.09789177	      6.08790173	      0.54276060	     23.69074794	     16.30692988	     -7.86220178	     18.86849027	     -3.45483203	     -7.64596365	     71.36177228	     -6.33242314	      1.24549789	     10.08312629	    -15.11427012	     -7.86220178	    -23.79212881	      6.50185508	     -0.80662524	      8.97132820	    -11.35808017	    -12.63263021	     35.68346832	     90.00000001	      0.00000000	      0.00000000	     -3.73088813	     -5.54844890	    -28.17851736	     33.23990362	     90.00000001	      0.00000000	      0.00000000
      1.10000000	      9.78819362	     -2.69541209	      2.80431692	     -0.99735409	      0.90577398	      0.21092760	      0.06816791	      3.37071715	    -13.38317408	     30.79078739	      5.99898327	      0.53740062	     24.00086507	     16.32378211	     -7.85059101	     19.75578847	     -3.01053678	     -7.84606206	     69.59765144	     -6.32963515	      1.21470817	     10.49556165	    -14.25235459	     -7.85059101	    -24.07413089	      6.17142740	     -0.57355519	      9.63590545	    -11.50758758	    -11.95340613	     35.78019442	     90.00000001	      0.00000000	      0.00000000	     -3.93823114	     -5.39769170	    -28.20640334	     33.80382637	     90.00000001	      0.00000000	      0.00000000
      1.11000000	      9.87362116	     -2.49738752	      2.52260235	     -0.99021264	      0.90621404	      0.21160123	     -0.68288086	      3.28083014	    -13.05462823	     30.51270195	      5.94518678	      0.53254711	     24.30705149	     16.42388552	     -7.83894651	     20.51150705	     -2.59768334	     -8.08342164	     67.55708151	     -6.32613176	      1.17909351	     10.83266844	    -13.23060363	     -7.83894651	    -24.32062798	      5.85601446	     -0.31229108	     10.31157142	    -11.59537891	    -11.33088499	     35.82360736	     90.00000001	      0.00000000	      0.00000000	     -4.19628926	     -5.20616896	    -28.25511388	     34.35442179	     90.00000001	      0.00000000	      0.00000000
      1.12000000	      9.60810343	     -2.53372925	      2.33189564	     -0.98318450	      0.90571953	      0.21222446	     -0.88620033	      3.46558063	    -12.89737155	     30.47691498	      5.76179066	      0.53192251	     24.30760796	     16.38126654	     -7.83398529	     21.79172316	     -2.48043084	     -7.94131999	     65.62083256	     -6.05255647	      1.14529959	     10.86615539	    -12.51718632	     -7.83398529	    -24.12827156	      5.82709025	     -0.02179679	     10.81475749	    -11.66389550	    -11.15396083	     36.08029839	     90.00000001	      0.00000000	      0.00000000	     -4.42011824	     -4.99082302	    -28.20478636	     34.65581744	     90.00000001	      0.00000000	      0.00000000
      1.13000000	      9.65411996	     -2.23362994	      1.96839133	     -0.97617477	      0.90600781	      0.21306177	     -1.55269163	      3.36178467	    -12.45541537	     30.19746400	      5.47550475	      0.52704517	     24.78386107	     16.47628334	     -7.82711087	     22.35099220	     -1.99925408	     -7.95384602	     63.09479716	     -5.70055146	      1.10121195	     11.16845411	    -11.51280896	     -7.82711087	    -24.36574340	      5.33742155	      0.23981429	     11.55683402	    -11.67547955	    -10.63056485	     35.94739023	     90.00000001	      0.00000000	      0.00000000	     -4.64503713	     -4.82932376	    -28.26699538	     35.26651720	     90.00000001	      0.00000000	      0.00000000
      1.14000000	      9.95759997	     -1.94804070	      1.65618237	     -0.96840977	      0.90664788	      0.21341746	     -2.72005375	      2.94257985	    -12.34183332	     29.80193832	      5.68995248	      0.52014195	     25.12696637	     17.24252547	     -7.81247561	     22.42721116	     -1.53681423	     -9.10793316	     60.14769338	     -6.32946678	      1.04977529	     11.71566860	     -9.32775935	     -7.81247561	    -24.74532697	      4.95711513	      0.36836867	     12.22954979	    -11.80654732	     -9.70896819	     35.84435758	     90.00000001	      0.00000000	      0.00000000	     -4.96586388	     -4.55277654	    -28.51531692	     35.78999115	     90.00000001	      0.00000000	      0.00000000
      1.15000000	      9.91966201	     -1.85377028	      1.35433407	     -0.96112310	      0.90643086	      0.21415082	     -3.23569650	      2.89615371	    -12.22819466	     29.74160949	      5.56423831	      0.51908901	     25.55304912	     17.47822849	     -7.80327182	     22.96340832	     -1.40474797	     -9.13772722	     57.43609322	     -5.90750569	      1.00244894	     12.02410505	     -7.93178097	     -7.80327182	    -24.80278644	      4.72172081	      0.63068558	     12.83739440	    -11.79554162	     -9.31913951	     35.78434537	     90.00000001	      0.00000000	      0.00000000	     -5.18762945	     -4.35581015	    -28.56687334	     36.16325740	     90.00000001	      0.00000000	      0.00000000
      1.16000000	      9.95990987	     -1.70250319	      1.06275822	     -0.95346761	      0.90630618	      0.21459795	     -3.97581431	      2.70834642	    -12.26833179	     29.50394448	      5.48169694	      0.51494097	     25.79900203	     18.40187298	     -7.78611195	     23.30377757	     -1.12851137	    -10.05811408	     54.45804498	     -6.31314953	      0.95047219	     12.61347761	     -5.37031728	     -7.78611195	    -24.88989475	      4.47411046	      0.81850710	     13.36764832	    -11.83479743	     -8.76962515	     35.81531600	     90.00000001	      0.00000000	      0.00000000	     -5.43509345	     -4.10524643	    -28.74198530	     36.51136713	     90.00000001	      0.00000000	      0.00000000
      1.17000000	      9.91871756	     -1.60681730	      0.83194791	     -0.94598737	      0.90588249	      0.21491725	     -4.58634010	      2.56042440	    -12.25421296	     29.33000131	      5.48450878	      0.51190509	     26.15014773	     18.88638386	     -7.77268311	     23.70127826	     -0.93048894	    -10.37468563	     51.53548198	     -6.18555221	      0.89946384	     13.02596366	     -3.49640068	     -7.77268311	    -24.89798868	      4.31051444	      0.94570234	     13.94992903	    -11.82573933	     -8.39158336	     35.75648524	     90.00000001	      0.00000000	      0.00000000	     -5.66123939	     -3.87915629	    -28.81375724	     36.78343698	     90.00000001	      0.00000000	      0.00000000
      1.18000000	      9.89136157	     -1.52849863	      0.59971672	     -0.93839323	      0.90538149	      0.21516837	     -5.23433930	      2.39931238	    -12.27328833	     29.14590962	      5.51236337	      0.50869209	     26.47614486	     19.44468607	     -7.76006452	     24.01599354	     -0.76882070	    -10.85821564	     48.57994648	     -6.15355185	      0.84788002	     13.43019090	     -1.38614272	     -7.76006452	    -24.90932288	      4.17508138	      1.07073299	     14.48480769	    -11.82114783	     -8.00482756	     35.73886486	     90.00000001	      0.00000000	      0.00000000	     -5.86346010	     -3.64062447	    -28.90325953	     36.97606105	     90.00000001	      0.00000000	      0.00000000
